<svg viewBox="0 0 360 218" style="background-color:#ffffff00" xmlns="http://www.w3.org/2000/svg" width="360" height="218"><path d="M285.768 55.797l34.964-10.316 31.043 107.735-178.855 52.77-26.69-92.625c26.151 7.204 52.108 14.3 78.152 21.7 2.297.634 18.06 5.656 20.008 5.08.45-.132 1.412-.743 2.03-1.418 20.19-22.515 40.443-45.377 60.59-68.043 1.6-1.785 3.457-3.808 5.164-5.788 1.088-1.304 2.282-2.804 3.564-4.002 1.857-2.023 3.05-3.523 2.485-5.488-.435-1.51-2.35-3.077-4.6-2.414-.3.09-1.305.55-1.668.984-23.39 26.083-69.38 78.18-69.83 78.312-.3.088-56.594-15.764-84.592-23.734-3.177-.866-6.505-1.688-9.382-2.642-1.76-.464-6.335-2.23-8.434-1.61-1.5.442-2.63 1.596-2.62 3.888l29.997 104.108c.305 1.058 2.882 2.1 3.676 2.03l187.1-55.2c1.198-.355 2.195-3.108 2.127-3.908L326.56 39.17c-.35-1.208-3.077-2.206-3.826-1.985l-37.31 10.975c.24 2.38.638 5.128.344 7.637zM221.14 4.695C217.728 3.572 206.28-.592 204.03.07c-.3.09-1.2.355-1.412.746-12.815 17.06-25.436 34.227-37.907 51.35-3.54 4.652-6.93 9.26-10.17 13.82-3.54 4.652-6.885 9.41-10.168 13.822-2.24 2.956-4.735 6.15-6.78 9.214-1.94 2.867-4.59 4.96-3.806 7.68.436 1.512 1.577 2.65 3.894 2.787l103.646-30.58c7.81-4.41 8.536-8.305 9.08-10.45L146.985 88.873l59.504-80.84 74.577 23.41c5.174 1.59 19.393 6.903 21.642 6.24 1.5-.443 3.25-2.27 2.553-4.688-.26-.907-1.06-1.983-2.52-2.536l-55.487-17.566c-3.908-1.142-8.053-2.542-11.81-3.73-4.79-1.373-9.664-3.05-14.302-4.47z" fill="#999"/><path d="M241.165 104.35l.723-4.693c.482-3.126 1.552-5.556 3.21-7.28 1.66-1.722 5.36-4.04 11.084-6.958 8.327-4.082 14.167-8.014 17.512-11.806 3.346-3.782 5.476-8.565 6.372-14.338 1.344-8.663-.858-16.077-6.6-22.247-5.738-6.166-14.124-10.068-25.162-11.697-13.38-1.975-26.52-.48-39.406 4.45l6.052 18.727c11.018-3.605 20.55-4.817 28.59-3.615 4.602.688 8.063 2.114 10.368 4.264 2.304 2.162 3.203 4.93 2.683 8.294-.464 3.015-1.783 5.597-3.96 7.76-2.175 2.175-6.38 4.77-12.595 7.798-6.48 3.257-11.082 6.548-13.83 9.887-2.758 3.333-4.505 7.492-5.264 12.446l-.878 5.73 21.103 3.274zm0 28.132l.076-.46c.658-4.258-.06-7.73-2.12-10.414-2.066-2.67-5.308-4.356-9.702-5.044-4.566-.714-8.218-.136-10.942 1.724-2.037 1.4-3.5 3.493-4.385 6.28l27.075 7.914zM137.165 194.237c2.186-.317 3.284.67 3.675 2.03.305 1.058-.178 3.332-1.678 3.775L78.296 218c-2.123-.03-2.965-1.257-3.27-2.314-.392-1.36-.14-2.746 1.872-3.667l60.268-17.783zM131.94 176.105c2.186-.317 3.284.67 3.676 2.03.305 1.058-.18 3.332-1.678 3.775l-72.86 21.497c-2.124-.03-2.966-1.257-3.27-2.315-.393-1.36-.14-2.745 1.87-3.667l72.262-21.32zM126.716 157.973c2.186-.317 3.284.67 3.675 2.03.306 1.058-.177 3.332-1.677 3.775l-84.855 25.035c-2.123-.03-2.964-1.256-3.27-2.314-.39-1.36-.14-2.747 1.872-3.668l84.256-24.86zM121.49 139.84c2.187-.316 3.285.672 3.677 2.032.304 1.057-.18 3.33-1.678 3.774L20.643 175.99c-2.124-.03-2.965-1.258-3.27-2.315-.392-1.36-.14-2.746 1.87-3.667l102.247-30.167zM116.266 121.71c2.186-.318 3.284.67 3.676 2.03.305 1.057-.18 3.33-1.678 3.773L3.424 161.397c-2.122-.03-2.963-1.257-3.268-2.315-.392-1.36-.14-2.744 1.87-3.666l114.24-33.705z" fill="#f90"/></svg>